<svg width="40" height="40" viewBox="0 0 40 40" fill="none" xmlns="http://www.w3.org/2000/svg">
<g clip-path="url(#clip0_58_31)">
<path d="M7.08334 3.22406e-06H32.9167C33.8471 -0.000896211 34.7686 0.186404 35.6284 0.551183C36.4882 0.915963 37.2694 1.45106 37.9273 2.12585C38.5852 2.80065 39.1069 3.60189 39.4626 4.48372C39.8183 5.36555 40.0009 6.31066 40 7.26496V32.735C40.0009 33.6893 39.8183 34.6344 39.4626 35.5163C39.1069 36.3981 38.5852 37.1994 37.9273 37.8741C37.2694 38.5489 36.4882 39.084 35.6284 39.4488C34.7686 39.8136 33.8471 40.0009 32.9167 40H7.08334C6.15289 40.0009 5.23141 39.8136 4.37162 39.4488C3.51184 39.084 2.73063 38.5489 2.07271 37.8741C1.41478 37.1994 0.893064 36.3981 0.537404 35.5163C0.181743 34.6344 -0.000873806 33.6893 3.14346e-06 32.735V7.26496C-0.000873806 6.31066 0.181743 5.36555 0.537404 4.48372C0.893064 3.60189 1.41478 2.80065 2.07271 2.12585C2.73063 1.45106 3.51184 0.915963 4.37162 0.551183C5.23141 0.186404 6.15289 -0.000896211 7.08334 3.22406e-06Z" fill="#F0F0F0"/>
<path d="M20.0025 35.4982L11.0051 33.0005L9 10.5116H31.032L29.0248 32.997L20.0025 35.4982Z" fill="#264DE4"/>
<path d="M27.3065 31.5652L29.0216 12.3503H20.016V33.5863L27.3065 31.5652Z" fill="#2965F1"/>
<path d="M13.5966 20.6911L13.8438 23.4493H20.016V20.6911H13.5966ZM13.0999 15.1085L13.3506 17.8667H20.016V15.1085H13.0999ZM20.016 27.8544L20.004 27.8576L16.9322 27.0281L16.7358 24.8284H13.967L14.3534 29.1591L20.0033 30.7275L20.016 30.724V27.8544Z" fill="#EBEBEB"/>
<path d="M14.1852 4.40002H17.5257V5.79703H15.5822V7.19403H17.5259V8.59095H14.1852V4.40002ZM18.1939 4.40002H21.5345V5.6148H19.5909V5.85774H21.5345V8.65175H18.194V7.37608H20.1376V7.13315H18.1938V4.40002H18.1939ZM22.2027 4.40002H25.5433V5.6148H23.5997V5.85774H25.5433V8.65175H22.2027V7.37608H24.1463V7.13315H22.2028V4.40002H22.2027Z" fill="black"/>
<path d="M26.4177 20.6911L26.9156 15.1085H20.0064V17.8667H23.8929L23.642 20.6911H20.0064V23.4493H23.4028L23.0826 27.0264L20.0063 27.8567V30.7262L25.6608 29.1591L25.7022 28.6931L26.3505 21.4317L26.4177 20.6911Z" fill="white"/>
</g>
<defs>
<clipPath id="clip0_58_31">
<rect width="40" height="40" fill="white"/>
</clipPath>
</defs>
</svg>
