<svg width="40" height="40" viewBox="0 0 40 40" fill="none" xmlns="http://www.w3.org/2000/svg">
<g clip-path="url(#clip0_58_23)">
<path d="M7.08334 3.22406e-06H32.9167C33.8471 -0.000896211 34.7686 0.186404 35.6284 0.551183C36.4882 0.915963 37.2694 1.45106 37.9273 2.12585C38.5852 2.80065 39.1069 3.60189 39.4626 4.48372C39.8183 5.36555 40.0009 6.31066 40 7.26496V32.735C40.0009 33.6893 39.8183 34.6344 39.4626 35.5163C39.1069 36.3981 38.5852 37.1994 37.9273 37.8741C37.2694 38.5489 36.4882 39.084 35.6284 39.4488C34.7686 39.8136 33.8471 40.0009 32.9167 40H7.08334C6.15289 40.0009 5.23141 39.8136 4.37162 39.4488C3.51184 39.084 2.73063 38.5489 2.07271 37.8741C1.41478 37.1994 0.893064 36.3981 0.537404 35.5163C0.181743 34.6344 -0.000873806 33.6893 3.14346e-06 32.735V7.26496C-0.000873806 6.31066 0.181743 5.36555 0.537404 4.48372C0.893064 3.60189 1.41478 2.80065 2.07271 2.12585C2.73063 1.45106 3.51184 0.915963 4.37162 0.551183C5.23141 0.186404 6.15289 -0.000896211 7.08334 3.22406e-06Z" fill="#F0F0F0"/>
<path d="M31.0163 10.5117L29.0091 32.9977L19.9866 35.499L10.9889 33.0011L8.98376 10.5117H31.0163Z" fill="#E44D26"/>
<path d="M20 33.587L27.2907 31.5658L29.0059 12.3505H20V33.587Z" fill="#F16529"/>
<path d="M16.0981 17.8671H20.0001V15.1089H13.0837L13.1497 15.8489L13.8277 23.4498H20.0001V20.6916H16.3502L16.0981 17.8671ZM16.7198 24.829H13.9509L14.3373 29.1598L19.9874 30.7282L20.0001 30.7248V27.855L19.988 27.8582L16.9162 27.0288L16.7198 24.829Z" fill="#EBEBEB"/>
<path d="M11.0337 4.40002H12.4354V5.78488H13.7177V4.40002H15.1194V8.59373H13.7177V7.18944H12.4355V8.59373H11.0338V4.40002H11.0337ZM16.9626 5.79076H15.7288V4.40002H19.5992V5.79076H18.3646V8.59373H16.9629V5.79076H16.9628H16.9626ZM20.2134 4.40002H21.675L22.574 5.87358L23.4722 4.40002H24.9344V8.59373H23.5384V6.5151L22.574 8.00619H22.5498L21.5849 6.5151V8.59373H20.2134V4.40002ZM25.6319 4.40002H27.0341V7.20757H29.0053V8.59373H25.6319V4.40002H25.6319Z" fill="black"/>
<path d="M19.9906 23.4498H23.387L23.0668 27.0271L19.9905 27.8574V30.7269L25.645 29.1598L25.6865 28.6938L26.3348 21.4323L26.402 20.6916H19.9906V23.4498ZM19.9906 17.8604V17.8671H26.653L26.7083 17.2472L26.834 15.8489L26.8999 15.1089H19.9906V17.8605V17.8604Z" fill="white"/>
</g>
<defs>
<clipPath id="clip0_58_23">
<rect width="40" height="40" fill="white"/>
</clipPath>
</defs>
</svg>
