<svg width="40" height="40" viewBox="0 0 40 40" fill="none" xmlns="http://www.w3.org/2000/svg">
<g clip-path="url(#clip0_58_20)">
<path d="M7.08334 3.22406e-06H32.9167C33.8471 -0.000896211 34.7686 0.186404 35.6284 0.551183C36.4882 0.915963 37.2694 1.45106 37.9273 2.12585C38.5852 2.80065 39.1069 3.60189 39.4626 4.48372C39.8183 5.36555 40.0009 6.31066 40 7.26496V32.735C40.0009 33.6893 39.8183 34.6344 39.4626 35.5163C39.1069 36.3981 38.5852 37.1994 37.9273 37.8741C37.2694 38.5489 36.4882 39.084 35.6284 39.4488C34.7686 39.8136 33.8471 40.0009 32.9167 40H7.08334C6.15289 40.0009 5.23141 39.8136 4.37162 39.4488C3.51184 39.084 2.73063 38.5489 2.07271 37.8741C1.41478 37.1994 0.893064 36.3981 0.537404 35.5163C0.181743 34.6344 -0.000873806 33.6893 3.14346e-06 32.735V7.26496C-0.000873806 6.31066 0.181743 5.36555 0.537404 4.48372C0.893064 3.60189 1.41478 2.80065 2.07271 2.12585C2.73063 1.45106 3.51184 0.915963 4.37162 0.551183C5.23141 0.186404 6.15289 -0.000896211 7.08334 3.22406e-06Z" fill="#F7DF1E"/>
<path d="M26.9378 31.2984C27.7435 32.6139 28.7917 33.5809 30.6457 33.5809C32.2032 33.5809 33.1981 32.8025 33.1981 31.7269C33.1981 30.438 32.1758 29.9815 30.4616 29.2317L29.5219 28.8285C26.8095 27.673 25.0076 26.2253 25.0076 23.165C25.0076 20.346 27.1555 18.2 30.5124 18.2C32.9022 18.2 34.6203 19.0317 35.8584 21.2095L32.9314 23.0888C32.287 21.9333 31.5917 21.478 30.5124 21.478C29.4114 21.478 28.7136 22.1765 28.7136 23.0888C28.7136 24.2165 29.412 24.673 31.0247 25.3714L31.9644 25.7739C35.1581 27.1434 36.9612 28.5396 36.9612 31.6787C36.9612 35.0628 34.3028 36.9168 30.7327 36.9168C27.2419 36.9168 24.9866 35.2533 23.8832 33.073L26.9378 31.2984ZM13.6597 31.6241C14.2501 32.6717 14.7873 33.5574 16.0787 33.5574C17.3136 33.5574 18.0927 33.0742 18.0927 31.1955V18.4146H21.8514V31.2463C21.8514 35.1384 19.5695 36.9098 16.2387 36.9098C13.2292 36.9098 11.4863 35.3523 10.6 33.4765L13.6597 31.6241Z" fill="black"/>
</g>
<defs>
<clipPath id="clip0_58_20">
<rect width="40" height="40" fill="white"/>
</clipPath>
</defs>
</svg>
